<?xml version="1.0" encoding="UTF-8" standalone="no"?><!-- Generator: Gravit.io --><svg xmlns="http://www.w3.org/2000/svg" xmlns:xlink="http://www.w3.org/1999/xlink" style="isolation:isolate" viewBox="0 0 240.938 133.682" width="240.938pt" height="133.682pt"><defs><clipPath id="_clipPath_NTAvwlJaAYRu4JBh4RFt7lQfXIj6mtWR"><rect width="240.938" height="133.682"/></clipPath></defs><g clip-path="url(#_clipPath_NTAvwlJaAYRu4JBh4RFt7lQfXIj6mtWR)"><g><path d=" M 0 81.35 L 0 97.369 Q 0 103.011 5.805 103.011 L 235.094 103.011 Q 240.899 103.011 240.899 97.369 L 240.899 81.35 Q 240.899 75.709 235.094 75.709 L 5.805 75.709 Q 0 75.709 0 81.35 Z " fill-rule="evenodd" fill="rgb(240,124,0)"/><path d=" M 5.696 75.709 L 66.574 75.709 C 69.707 75.709 72.27 78.25 72.27 81.35 L 72.27 97.369 C 72.27 100.47 69.705 103.011 66.574 103.011 L 5.696 103.011 C 2.566 103.011 0 100.472 0 97.369 L 0 81.35 C 0 78.247 2.563 75.708 5.696 75.708 L 5.696 75.709 Z " fill-rule="evenodd" fill="rgb(86,87,87)"/><path d=" M 13.988 85.539 L 13.988 95.302 L 11.22 95.302 L 11.22 85.539 L 5.763 85.539 L 5.763 83.417 L 19.46 83.417 L 19.46 85.539 L 13.988 85.539 Z  M 24.892 85.539 L 32.352 85.539 L 32.352 88.076 L 26.411 88.076 L 26.411 90.401 L 32.352 90.401 L 32.352 93.072 L 24.892 93.072 L 24.892 91.733 L 22.128 91.088 L 22.128 92.493 C 22.128 93.567 22.328 94.304 22.731 94.707 C 23.157 95.102 23.94 95.302 25.079 95.302 L 32.648 95.302 C 32.962 95.302 33.312 95.237 33.695 95.106 C 34.079 94.976 34.413 94.741 34.693 94.408 C 34.973 94.07 35.115 93.625 35.115 93.072 L 35.115 87.569 L 35.115 86.23 C 35.115 85.159 34.916 84.422 34.513 84.019 C 34.091 83.62 33.308 83.42 32.164 83.42 L 25.08 83.42 C 23.936 83.42 23.153 83.62 22.731 84.023 C 22.328 84.422 22.128 85.159 22.128 86.23 L 22.128 87.362 L 24.892 86.671 L 24.892 85.539 Z  M 38.805 95.302 L 38.805 83.417 L 41.595 83.417 L 41.595 88.371 L 48.184 83.417 L 52.187 83.417 L 44.312 89.016 L 53.154 95.302 L 48.714 95.302 L 41.595 90.075 L 41.595 95.302 L 38.805 95.302 Z  M 66.94 85.539 L 59.48 85.539 L 59.48 93.069 L 66.94 93.069 L 66.94 90.512 L 69.707 91.084 L 69.707 92.489 C 69.707 93.567 69.508 94.304 69.105 94.707 C 68.679 95.102 67.896 95.302 66.756 95.302 L 59.664 95.302 C 58.524 95.302 57.741 95.102 57.315 94.707 C 56.912 94.304 56.713 93.567 56.713 92.489 L 56.713 86.226 C 56.713 85.155 56.912 84.418 57.315 84.019 C 57.738 83.616 58.52 83.416 59.664 83.416 L 66.756 83.416 C 67.9 83.416 68.683 83.616 69.105 84.019 C 69.508 84.418 69.707 85.155 69.707 86.23 L 69.707 87.358 L 66.94 87.799 L 66.94 85.539 Z " fill-rule="evenodd" fill="rgb(255,255,255)"/><path d=" M 75.937 90.351 L 75.937 87.976 L 81.298 87.976 L 81.298 90.351 L 75.937 90.351 Z  M 86.085 90.555 L 91.282 90.555 L 88.707 85.723 L 86.085 90.555 Z  M 80.762 95.302 L 87.459 83.416 L 90.13 83.416 L 96.946 95.302 L 93.838 95.302 L 92.41 92.7 L 84.888 92.7 L 83.506 95.302 L 80.762 95.302 Z  M 109.32 85.355 L 103.015 85.355 L 103.015 88.183 L 109.32 88.183 C 109.788 88.183 110.118 88.121 110.31 88.003 C 110.498 87.861 110.59 87.638 110.59 87.335 L 110.59 86.203 C 110.59 85.9 110.498 85.677 110.31 85.535 C 110.118 85.416 109.788 85.355 109.32 85.355 Z  M 109.32 90.14 L 103.015 90.14 L 103.015 93.157 L 109.32 93.157 C 109.854 93.157 110.207 93.08 110.383 92.927 C 110.567 92.765 110.66 92.489 110.66 92.101 L 110.66 91.203 C 110.66 90.808 110.567 90.532 110.383 90.371 C 110.203 90.217 109.85 90.14 109.32 90.14 L 109.32 90.14 Z  M 100.298 95.302 L 100.298 83.416 L 110.475 83.416 C 111.404 83.416 112.091 83.601 112.528 83.973 C 112.939 84.341 113.146 84.925 113.146 85.723 L 113.146 87.17 C 113.146 87.726 112.97 88.179 112.617 88.532 C 112.252 88.897 111.746 89.108 111.097 89.173 C 111.784 89.265 112.314 89.515 112.686 89.914 C 113.058 90.301 113.242 90.815 113.242 91.456 L 113.242 92.972 C 113.242 93.744 112.951 94.327 112.363 94.73 C 111.799 95.11 110.924 95.302 109.738 95.302 L 100.298 95.302 Z  M 124.354 85.539 L 124.354 95.302 L 121.587 95.302 L 121.587 85.539 L 116.13 85.539 L 116.13 83.416 L 129.826 83.416 L 129.826 85.539 L 124.354 85.539 Z  M 132.303 86.226 C 132.303 85.151 132.502 84.414 132.898 84.019 C 133.324 83.616 134.107 83.416 135.25 83.416 L 144.004 83.416 C 145.155 83.416 145.931 83.616 146.33 84.019 C 146.748 84.411 146.955 85.147 146.955 86.226 L 146.955 92.489 C 146.955 93.575 146.748 94.312 146.33 94.707 C 145.927 95.102 145.151 95.302 144.004 95.302 L 135.25 95.302 C 134.111 95.302 133.328 95.102 132.898 94.707 C 132.502 94.308 132.303 93.571 132.303 92.489 L 132.303 86.226 Z  M 135.07 93.068 L 144.188 93.068 L 144.188 85.539 L 135.07 85.539 L 135.07 93.068 Z  M 150.944 95.302 L 150.944 83.416 L 153.177 83.416 L 158.769 90.601 L 164.249 83.416 L 166.464 83.416 L 166.464 95.302 L 163.908 95.302 L 163.908 87.953 C 163.908 87.742 163.916 87.565 163.931 87.427 C 163.95 87.243 163.973 86.997 163.996 86.69 C 163.923 86.828 163.854 86.963 163.789 87.093 C 163.727 87.227 163.666 87.343 163.608 87.45 C 163.466 87.703 163.367 87.864 163.305 87.933 L 158.842 93.874 L 158.286 93.874 L 153.822 87.91 C 153.703 87.761 153.565 87.546 153.408 87.262 C 153.254 87.016 153.155 86.824 153.109 86.69 C 153.132 86.94 153.155 87.17 153.177 87.381 L 153.177 87.953 L 153.177 95.302 L 150.944 95.302 Z  M 174.547 90.555 L 179.743 90.555 L 177.169 85.723 L 174.547 90.555 Z  M 169.224 95.302 L 175.921 83.416 L 178.592 83.416 L 185.408 95.302 L 182.3 95.302 L 180.872 92.7 L 173.35 92.7 L 171.968 95.302 L 169.224 95.302 Z  M 195.925 85.539 L 195.925 95.302 L 193.158 95.302 L 193.158 85.539 L 187.701 85.539 L 187.701 83.416 L 201.397 83.416 L 201.397 85.539 L 195.925 85.539 Z  M 217.647 95.302 L 217.647 83.416 L 215.759 83.416 L 207.401 90.42 C 207.051 90.693 206.798 90.904 206.641 91.061 C 206.46 91.241 206.265 91.46 206.046 91.71 C 206.061 91.468 206.077 91.211 206.096 90.927 C 206.111 90.647 206.127 90.44 206.138 90.305 C 206.15 90.121 206.157 89.906 206.157 89.657 L 206.157 83.416 L 203.674 83.416 L 203.674 95.302 L 205.562 95.302 L 214.285 87.953 C 214.539 87.738 214.719 87.569 214.838 87.45 C 215.026 87.266 215.172 87.112 215.276 86.986 C 215.268 87.124 215.253 87.304 215.23 87.527 C 215.207 87.753 215.191 87.918 215.187 88.026 C 215.172 88.256 215.164 88.54 215.164 88.878 L 215.164 95.302 L 217.647 95.302 Z  M 221.341 95.302 L 221.341 83.416 L 224.131 83.416 L 224.131 88.371 L 230.72 83.416 L 234.723 83.416 L 226.848 89.016 L 235.69 95.302 L 231.25 95.302 L 224.131 90.075 L 224.131 95.302 L 221.341 95.302 Z " fill-rule="evenodd" fill="rgb(86,87,87)"/><path d=" M 39.976 121.773 L 39.976 115.908 L 41.353 115.908 L 41.353 118.353 L 44.605 115.908 L 46.579 115.908 L 42.694 118.671 L 47.057 121.773 L 44.866 121.773 L 41.353 119.193 L 41.353 121.773 L 39.976 121.773 Z  M 48.352 117.294 C 48.352 116.764 48.45 116.4 48.645 116.205 C 48.856 116.006 49.242 115.908 49.806 115.908 L 54.126 115.908 C 54.694 115.908 55.076 116.006 55.273 116.205 C 55.48 116.398 55.582 116.762 55.582 117.294 L 55.582 120.385 C 55.582 120.921 55.48 121.284 55.273 121.479 C 55.074 121.674 54.692 121.773 54.126 121.773 L 49.806 121.773 C 49.244 121.773 48.858 121.674 48.645 121.479 C 48.45 121.282 48.352 120.919 48.352 120.385 L 48.352 117.294 Z  M 49.717 120.671 L 54.217 120.671 L 54.217 116.955 L 49.717 116.955 L 49.717 120.671 Z  M 57.18 121.773 L 57.18 115.908 L 58.282 115.908 L 61.041 119.453 L 63.746 115.908 L 64.838 115.908 L 64.838 121.773 L 63.577 121.773 L 63.577 118.146 C 63.577 118.042 63.581 117.955 63.588 117.887 C 63.598 117.796 63.609 117.675 63.621 117.523 C 63.585 117.592 63.551 117.658 63.518 117.722 C 63.488 117.789 63.458 117.845 63.429 117.898 C 63.359 118.023 63.31 118.103 63.28 118.137 L 61.077 121.068 L 60.803 121.068 L 58.6 118.126 C 58.542 118.052 58.474 117.946 58.396 117.806 C 58.32 117.684 58.271 117.59 58.248 117.523 C 58.26 117.647 58.271 117.76 58.282 117.864 L 58.282 118.146 L 58.282 121.773 L 57.18 121.773 Z  M 67.703 121.773 L 67.703 117.012 L 71.589 117.012 L 71.589 121.773 L 72.954 121.773 L 72.954 115.908 L 71.498 115.908 L 66.342 115.908 L 66.342 117.294 L 66.342 121.773 L 67.703 121.773 Z  M 78.281 115.908 L 81.665 121.773 L 80.108 121.773 L 77.734 117.535 L 75.475 121.773 L 74.11 121.773 L 77.338 115.908 L 78.281 115.908 Z  M 82.311 121.773 L 82.311 115.908 L 88.312 115.908 L 88.312 116.908 L 83.676 116.908 L 83.676 118.216 L 86.382 118.216 L 86.382 119.216 L 83.676 119.216 L 83.676 120.671 L 88.37 120.671 L 88.37 121.773 L 82.311 121.773 Z  M 89.571 121.773 L 89.571 115.908 L 90.948 115.908 L 90.948 118.353 L 94.199 115.908 L 96.174 115.908 L 92.288 118.671 L 96.651 121.773 L 94.46 121.773 L 90.948 119.193 L 90.948 121.773 L 89.571 121.773 Z  M 103.084 116.955 L 99.403 116.955 L 99.403 120.671 L 103.084 120.671 L 103.084 119.409 L 104.449 119.692 L 104.449 120.385 C 104.449 120.917 104.351 121.28 104.152 121.479 C 103.942 121.674 103.555 121.773 102.993 121.773 L 99.494 121.773 C 98.931 121.773 98.545 121.674 98.334 121.479 C 98.136 121.28 98.037 120.917 98.037 120.385 L 98.037 117.294 C 98.037 116.766 98.136 116.402 98.334 116.205 C 98.543 116.006 98.929 115.908 99.494 115.908 L 102.993 115.908 C 103.557 115.908 103.944 116.006 104.152 116.205 C 104.351 116.402 104.449 116.766 104.449 117.296 L 104.449 117.853 L 103.084 118.071 L 103.084 116.955 Z  M 105.922 121.773 L 105.922 115.908 L 107.288 115.908 L 107.288 118.182 L 111.546 118.182 L 111.546 115.908 L 112.923 115.908 L 112.923 121.773 L 111.546 121.773 L 111.546 119.25 L 107.288 119.25 L 107.288 121.773 L 105.922 121.773 Z  M 119.115 120.76 L 116.046 120.76 L 116.046 119.203 L 119.115 119.203 C 119.35 119.203 119.513 119.237 119.604 119.305 C 119.685 119.377 119.727 119.498 119.727 119.669 L 119.727 120.296 C 119.727 120.466 119.685 120.587 119.604 120.659 C 119.515 120.726 119.352 120.76 119.115 120.76 Z  M 114.707 115.908 L 114.707 121.773 L 119.715 121.773 C 120.177 121.773 120.518 121.686 120.74 121.511 C 120.944 121.33 121.048 121.036 121.048 120.635 L 121.048 119.328 C 121.048 118.936 120.944 118.648 120.74 118.466 C 120.522 118.285 120.181 118.194 119.715 118.194 L 116.046 118.194 L 116.046 115.908 L 114.707 115.908 Z  M 121.922 121.784 L 121.922 115.908 L 123.33 115.908 L 123.33 121.784 L 121.922 121.784 Z  M 124.942 121.773 L 124.942 115.908 L 130.943 115.908 L 130.943 116.908 L 126.307 116.908 L 126.307 118.216 L 129.013 118.216 L 129.013 119.216 L 126.307 119.216 L 126.307 120.671 L 131.001 120.671 L 131.001 121.773 L 124.942 121.773 Z  M 146.256 116.921 L 143.191 116.921 L 143.191 118.478 L 146.256 118.478 C 146.495 118.478 146.658 118.444 146.745 118.375 C 146.828 118.307 146.87 118.186 146.87 118.012 L 146.87 117.387 C 146.87 117.213 146.828 117.092 146.745 117.023 C 146.658 116.955 146.495 116.921 146.256 116.921 L 146.256 116.921 Z  M 141.85 121.773 L 141.85 115.908 L 146.857 115.908 C 147.317 115.908 147.66 115.995 147.881 116.171 C 148.086 116.351 148.188 116.643 148.188 117.046 L 148.188 118.353 C 148.188 118.747 148.086 119.034 147.881 119.216 C 147.664 119.4 147.323 119.491 146.857 119.491 L 143.191 119.491 L 143.191 121.773 L 141.85 121.773 Z  M 150.21 121.773 L 150.21 115.908 L 156.211 115.908 L 156.211 116.908 L 151.576 116.908 L 151.576 118.216 L 154.282 118.216 L 154.282 119.216 L 151.576 119.216 L 151.576 120.671 L 156.27 120.671 L 156.27 121.773 L 150.21 121.773 Z  M 159.02 115.908 L 159.02 120.671 L 161.767 120.671 L 161.767 115.908 L 163.301 115.908 L 163.301 120.671 L 165.981 120.671 L 165.981 115.908 L 167.346 115.908 L 167.346 120.385 C 167.346 120.917 167.248 121.28 167.049 121.479 C 166.842 121.674 166.456 121.773 165.892 121.773 L 159.962 121.773 L 159.109 121.773 C 158.541 121.773 158.158 121.674 157.963 121.479 C 157.757 121.284 157.654 120.921 157.654 120.385 L 157.654 115.908 L 159.02 115.908 Z  M 168.81 121.773 L 168.81 115.908 L 174.811 115.908 L 174.811 116.908 L 170.175 116.908 L 170.175 118.216 L 172.881 118.216 L 172.881 119.216 L 170.175 119.216 L 170.175 120.671 L 174.869 120.671 L 174.869 121.773 L 168.81 121.773 Z  M 176.331 121.773 L 176.331 115.908 L 177.697 115.908 L 177.697 118.182 L 181.955 118.182 L 181.955 115.908 L 183.332 115.908 L 183.332 121.773 L 181.955 121.773 L 181.955 119.25 L 177.697 119.25 L 177.697 121.773 L 176.331 121.773 Z  M 191.74 121.773 L 191.74 115.908 L 190.808 115.908 L 186.683 119.364 C 186.511 119.498 186.386 119.602 186.308 119.68 C 186.22 119.769 186.123 119.877 186.015 120 C 186.023 119.881 186.03 119.754 186.04 119.614 C 186.048 119.476 186.055 119.373 186.06 119.307 C 186.066 119.216 186.07 119.11 186.07 118.987 L 186.07 115.908 L 184.845 115.908 L 184.845 121.773 L 185.777 121.773 L 190.081 118.146 C 190.206 118.04 190.295 117.957 190.354 117.898 C 190.447 117.807 190.519 117.732 190.57 117.669 C 190.566 117.737 190.558 117.826 190.547 117.936 C 190.536 118.048 190.528 118.129 190.526 118.182 C 190.518 118.296 190.515 118.436 190.515 118.603 L 190.515 121.773 L 191.74 121.773 Z  M 196.237 116.921 L 199.304 116.921 L 199.304 118.559 L 196.237 118.559 C 196.002 118.559 195.839 118.525 195.748 118.457 C 195.665 118.385 195.623 118.264 195.623 118.093 L 195.623 117.387 C 195.623 117.213 195.665 117.092 195.748 117.023 C 195.839 116.955 196.002 116.921 196.237 116.921 L 196.237 116.921 Z  M 200.645 121.773 L 200.645 115.908 L 195.635 115.908 C 195.171 115.908 194.832 115.997 194.612 116.171 C 194.408 116.351 194.305 116.643 194.305 117.046 L 194.305 118.421 C 194.305 118.813 194.408 119.101 194.612 119.284 C 194.824 119.466 195.165 119.557 195.635 119.557 L 196.398 119.557 L 193.692 121.773 L 195.646 121.773 L 198.009 119.557 L 199.305 119.557 L 199.305 121.773 L 200.645 121.773 Z  M 4.539 128.762 L 1.428 128.762 L 1.428 130.158 L 4.539 130.158 C 4.77 130.158 4.933 130.128 5.028 130.069 C 5.12 129.999 5.166 129.889 5.166 129.739 L 5.166 129.181 C 5.166 129.031 5.12 128.921 5.028 128.851 C 4.933 128.792 4.77 128.762 4.539 128.762 Z  M 4.539 131.124 L 1.428 131.124 L 1.428 132.612 L 4.539 132.612 C 4.802 132.612 4.976 132.574 5.064 132.498 C 5.154 132.419 5.2 132.282 5.2 132.091 L 5.2 131.648 C 5.2 131.453 5.154 131.317 5.064 131.237 C 4.975 131.162 4.8 131.124 4.539 131.124 L 4.539 131.124 Z  M 0.087 133.671 L 0.087 127.806 L 5.109 127.806 C 5.567 127.806 5.906 127.897 6.122 128.081 C 6.325 128.262 6.427 128.55 6.427 128.944 L 6.427 129.658 C 6.427 129.933 6.34 130.156 6.166 130.33 C 5.986 130.51 5.736 130.614 5.416 130.647 C 5.755 130.692 6.016 130.815 6.2 131.012 C 6.384 131.203 6.475 131.457 6.475 131.773 L 6.475 132.521 C 6.475 132.902 6.331 133.19 6.041 133.389 C 5.762 133.576 5.331 133.671 4.745 133.671 L 0.087 133.671 Z  M 17.503 129.192 C 17.503 128.662 17.601 128.298 17.796 128.103 C 18.006 127.904 18.393 127.806 18.957 127.806 L 23.276 127.806 C 23.844 127.806 24.227 127.904 24.424 128.103 C 24.63 128.296 24.733 128.66 24.733 129.192 L 24.733 132.282 C 24.733 132.818 24.63 133.182 24.424 133.377 C 24.225 133.572 23.843 133.671 23.276 133.671 L 18.957 133.671 C 18.395 133.671 18.008 133.572 17.796 133.377 C 17.601 133.18 17.503 132.816 17.503 132.282 L 17.503 129.192 Z  M 18.868 132.568 L 23.367 132.568 L 23.367 128.853 L 18.868 128.853 L 18.868 132.568 Z  M 30.999 132.657 L 27.931 132.657 L 27.931 131.101 L 30.999 131.101 C 31.233 131.101 31.396 131.135 31.487 131.203 C 31.571 131.275 31.612 131.396 31.612 131.567 L 31.612 132.193 C 31.612 132.364 31.571 132.485 31.487 132.557 C 31.398 132.623 31.235 132.657 30.999 132.657 Z  M 26.592 127.806 L 26.592 133.671 L 31.601 133.671 C 32.061 133.671 32.402 133.584 32.624 133.409 C 32.83 133.228 32.932 132.934 32.932 132.534 L 32.932 131.228 C 32.932 130.836 32.83 130.548 32.624 130.364 C 32.406 130.184 32.065 130.094 31.601 130.094 L 27.931 130.094 L 27.931 128.819 L 32.353 128.819 L 32.737 127.806 L 27.931 127.806 L 26.592 127.806 Z  M 38.181 127.806 L 41.565 133.671 L 40.009 133.671 L 37.634 129.432 L 35.375 133.671 L 34.01 133.671 L 37.238 127.806 L 38.181 127.806 Z  M 44.489 131.328 L 47.053 131.328 L 45.782 128.944 L 44.489 131.328 Z  M 41.863 133.671 L 45.167 127.806 L 46.485 127.806 L 49.848 133.671 L 48.314 133.671 L 47.61 132.387 L 43.898 132.387 L 43.216 133.671 L 41.863 133.671 Z  M 56.256 128.853 L 52.575 128.853 L 52.575 132.568 L 56.256 132.568 L 56.256 131.307 L 57.621 131.589 L 57.621 132.282 C 57.621 132.815 57.523 133.178 57.324 133.377 C 57.114 133.572 56.727 133.671 56.165 133.671 L 52.666 133.671 C 52.103 133.671 51.717 133.572 51.507 133.377 C 51.308 133.178 51.21 132.815 51.21 132.282 L 51.21 129.192 C 51.21 128.664 51.308 128.3 51.507 128.103 C 51.715 127.904 52.101 127.806 52.666 127.806 L 56.165 127.806 C 56.729 127.806 57.116 127.904 57.324 128.103 C 57.523 128.3 57.621 128.664 57.621 129.194 L 57.621 129.751 L 56.256 129.969 L 56.256 128.853 Z  M 62.632 128.853 L 62.632 133.671 L 61.266 133.671 L 61.266 128.853 L 58.574 128.853 L 58.574 127.806 L 65.332 127.806 L 65.332 128.853 L 62.632 128.853 Z  M 72.98 133.671 L 72.98 127.806 L 72.049 127.806 L 67.924 131.262 C 67.752 131.396 67.627 131.5 67.549 131.578 C 67.461 131.667 67.364 131.775 67.256 131.898 C 67.264 131.779 67.271 131.652 67.281 131.512 C 67.289 131.374 67.296 131.271 67.301 131.205 C 67.307 131.114 67.311 131.008 67.311 130.885 L 67.311 127.806 L 66.086 127.806 L 66.086 133.671 L 67.018 133.671 L 71.322 130.044 C 71.447 129.938 71.536 129.855 71.595 129.796 C 71.687 129.705 71.759 129.629 71.81 129.567 C 71.806 129.635 71.799 129.724 71.788 129.834 C 71.776 129.946 71.769 130.027 71.767 130.08 C 71.759 130.194 71.756 130.334 71.756 130.501 L 71.756 133.671 L 72.98 133.671 Z  M 85.524 133.671 L 85.524 128.91 L 89.409 128.91 L 89.409 133.671 L 90.775 133.671 L 90.775 127.806 L 89.318 127.806 L 84.162 127.806 L 84.162 129.192 L 84.162 133.671 L 85.524 133.671 Z  M 96.884 128.819 L 93.818 128.819 L 93.818 130.376 L 96.884 130.376 C 97.122 130.376 97.285 130.342 97.372 130.273 C 97.456 130.205 97.497 130.084 97.497 129.91 L 97.497 129.285 C 97.497 129.111 97.456 128.989 97.372 128.921 C 97.285 128.853 97.122 128.819 96.884 128.819 Z  M 92.477 133.671 L 92.477 127.806 L 97.484 127.806 C 97.944 127.806 98.287 127.893 98.508 128.069 C 98.713 128.249 98.815 128.541 98.815 128.944 L 98.815 130.251 C 98.815 130.645 98.713 130.932 98.508 131.114 C 98.291 131.298 97.95 131.389 97.484 131.389 L 93.818 131.389 L 93.818 133.671 L 92.477 133.671 Z  M 100.985 129.192 C 100.985 128.662 101.084 128.298 101.279 128.103 C 101.489 127.904 101.875 127.806 102.44 127.806 L 106.759 127.806 C 107.327 127.806 107.71 127.904 107.907 128.103 C 108.113 128.296 108.215 128.66 108.215 129.192 L 108.215 132.282 C 108.215 132.818 108.113 133.182 107.907 133.377 C 107.708 133.572 107.325 133.671 106.759 133.671 L 102.44 133.671 C 101.877 133.671 101.491 133.572 101.279 133.377 C 101.084 133.18 100.985 132.816 100.985 132.282 L 100.985 129.192 Z  M 102.35 132.568 L 106.85 132.568 L 106.85 128.853 L 102.35 128.853 L 102.35 132.568 Z  M 109.814 133.671 L 109.814 127.806 L 110.916 127.806 L 113.675 131.351 L 116.379 127.806 L 117.471 127.806 L 117.471 133.671 L 116.21 133.671 L 116.21 130.044 C 116.21 129.94 116.214 129.853 116.222 129.785 C 116.232 129.694 116.243 129.573 116.254 129.421 C 116.218 129.489 116.184 129.556 116.152 129.62 C 116.121 129.686 116.091 129.743 116.063 129.796 C 115.993 129.921 115.943 130.001 115.913 130.035 L 113.711 132.966 L 113.436 132.966 L 111.234 130.023 C 111.175 129.949 111.107 129.843 111.029 129.703 C 110.954 129.582 110.904 129.487 110.882 129.421 C 110.893 129.544 110.904 129.658 110.916 129.762 L 110.916 130.044 L 110.916 133.67 L 109.814 133.671 Z  M 123.541 132.657 L 120.471 132.657 L 120.471 131.101 L 123.541 131.101 C 123.775 131.101 123.938 131.135 124.029 131.203 C 124.11 131.275 124.152 131.396 124.152 131.567 L 124.152 132.193 C 124.152 132.364 124.11 132.485 124.029 132.557 C 123.94 132.623 123.777 132.657 123.541 132.657 Z  M 119.132 127.806 L 119.132 133.671 L 124.141 133.671 C 124.603 133.671 124.944 133.584 125.165 133.409 C 125.37 133.228 125.474 132.934 125.474 132.532 L 125.474 131.226 C 125.474 130.834 125.37 130.546 125.165 130.364 C 124.947 130.183 124.607 130.092 124.141 130.092 L 120.471 130.092 L 120.471 127.806 L 119.132 127.806 Z  M 126.347 133.682 L 126.347 127.806 L 127.756 127.806 L 127.756 133.682 L 126.347 133.682 Z  M 130.814 127.806 L 130.814 132.568 L 133.562 132.568 L 133.562 127.806 L 135.095 127.806 L 135.095 132.568 L 137.775 132.568 L 137.775 127.806 L 139.14 127.806 L 139.14 132.282 C 139.14 132.815 139.042 133.178 138.843 133.377 C 138.637 133.572 138.25 133.671 137.686 133.671 L 131.757 133.671 L 130.903 133.671 C 130.335 133.671 129.952 133.572 129.757 133.377 C 129.551 133.182 129.449 132.818 129.449 132.282 L 129.449 127.806 L 130.814 127.806 Z  M 144.31 127.806 L 147.694 133.671 L 146.137 133.671 L 143.763 129.432 L 141.503 133.671 L 140.138 133.671 L 143.367 127.806 L 144.31 127.806 Z  M 148.339 133.671 L 148.339 127.806 L 154.34 127.806 L 154.34 128.806 L 149.705 128.806 L 149.705 130.114 L 152.411 130.114 L 152.411 131.114 L 149.705 131.114 L 149.705 132.568 L 154.399 132.568 L 154.399 133.671 L 148.339 133.671 Z  M 155.861 133.671 L 155.861 127.806 L 157.226 127.806 L 157.226 130.08 L 161.485 130.08 L 161.485 127.806 L 162.862 127.806 L 162.862 133.671 L 161.485 133.671 L 161.485 131.148 L 157.226 131.148 L 157.226 133.671 L 155.861 133.671 Z  M 164.485 133.671 L 164.485 127.806 L 165.85 127.806 L 165.85 130.08 L 170.109 130.08 L 170.109 127.806 L 171.485 127.806 L 171.485 133.671 L 170.109 133.671 L 170.109 131.148 L 165.85 131.148 L 165.85 133.671 L 164.485 133.671 Z  M 177.678 132.657 L 174.608 132.657 L 174.608 131.101 L 177.678 131.101 C 177.912 131.101 178.075 131.135 178.166 131.203 C 178.247 131.275 178.289 131.396 178.289 131.567 L 178.289 132.193 C 178.289 132.364 178.247 132.485 178.166 132.557 C 178.077 132.623 177.914 132.657 177.678 132.657 Z  M 173.269 127.806 L 173.269 133.671 L 178.278 133.671 C 178.74 133.671 179.081 133.584 179.302 133.409 C 179.507 133.228 179.611 132.934 179.611 132.532 L 179.611 131.226 C 179.611 130.834 179.507 130.546 179.302 130.364 C 179.084 130.183 178.744 130.092 178.278 130.092 L 174.608 130.092 L 174.608 127.806 L 173.269 127.806 Z  M 180.484 133.682 L 180.484 127.806 L 181.893 127.806 L 181.893 133.682 L 180.484 133.682 Z  M 183.406 133.671 L 186.187 130.66 L 183.358 127.806 L 185.165 127.806 L 187.039 129.796 L 188.823 127.806 L 190.393 127.806 L 187.835 130.5 L 190.995 133.671 L 189.141 133.671 L 186.996 131.398 L 185.017 133.671 L 183.406 133.671 Z  M 203.811 131.328 L 206.375 131.328 L 205.105 128.944 L 203.811 131.328 Z  M 201.185 133.671 L 204.489 127.806 L 205.807 127.806 L 209.17 133.671 L 207.637 133.671 L 206.932 132.387 L 203.221 132.387 L 202.539 133.671 L 201.185 133.671 Z  M 215.578 128.853 L 211.897 128.853 L 211.897 132.568 L 215.578 132.568 L 215.578 131.307 L 216.944 131.589 L 216.944 132.282 C 216.944 132.815 216.845 133.178 216.646 133.377 C 216.436 133.572 216.05 133.671 215.487 133.671 L 211.988 133.671 C 211.426 133.671 211.039 133.572 210.829 133.377 C 210.63 133.178 210.532 132.815 210.532 132.282 L 210.532 129.192 C 210.532 128.664 210.63 128.3 210.829 128.103 C 211.037 127.904 211.424 127.806 211.988 127.806 L 215.487 127.806 C 216.052 127.806 216.438 127.904 216.646 128.103 C 216.845 128.3 216.944 128.664 216.944 129.194 L 216.944 129.751 L 215.578 129.969 L 215.578 128.853 Z  M 218.655 133.671 L 218.655 132.568 L 222.009 132.568 L 223.906 132.568 L 223.906 131.605 L 220.11 131.605 C 219.542 131.605 219.159 131.506 218.96 131.307 C 218.758 131.114 218.655 130.75 218.655 130.217 L 218.655 127.806 L 220.021 127.806 L 220.021 130.592 L 223.906 130.592 L 223.906 127.806 L 225.272 127.806 L 225.272 132.282 C 225.272 132.815 225.173 133.178 224.974 133.377 C 224.764 133.572 224.378 133.671 223.816 133.671 L 221.905 133.671 L 220.11 133.671 L 218.655 133.671 Z  M 230.758 128.853 L 230.758 133.671 L 229.392 133.671 L 229.392 128.853 L 226.7 128.853 L 226.7 127.806 L 233.458 127.806 L 233.458 128.853 L 230.758 128.853 Z  M 235.687 133.671 L 235.687 128.91 L 239.573 128.91 L 239.573 133.671 L 240.938 133.671 L 240.938 127.806 L 239.482 127.806 L 234.325 127.806 L 234.325 129.192 L 234.325 133.671 L 235.687 133.671 Z " fill-rule="evenodd" fill="rgb(86,87,87)"/><path d=" M 126.445 56.447 C 123.318 53.228 120.191 50.009 117.064 46.791 C 110.88 46.791 104.697 46.791 98.513 46.791 C 93.644 46.791 91.898 46.961 89.009 44.013 C 85.561 40.447 85.417 39.347 88.4 36.384 C 95.095 29.465 101.79 22.546 108.485 15.628 C 109.103 14.988 109.727 14.353 110.34 13.709 C 113.522 10.375 118.426 12.879 124.623 14.668 C 119.87 9.779 115.117 4.89 110.365 0 C 99.682 10.982 89 21.964 78.317 32.946 C 74.533 36.861 74.535 42.902 78.293 46.788 C 79.868 48.425 81.442 50.062 83.016 51.7 C 87.549 56.399 87.789 56.456 94.323 56.455 C 105.031 56.452 115.738 56.449 126.446 56.447 L 126.445 56.447 Z " fill-rule="evenodd" fill="rgb(240,124,0)"/><path d=" M 115.266 44.943 C 112.663 42.268 110.06 39.592 107.456 36.916 C 109.615 38.059 111.813 38.824 114.096 38.759 C 121.621 38.759 129.146 38.759 136.672 38.759 C 133.012 34.97 130.599 30.742 124.91 30.742 C 118.702 30.742 112.496 30.742 106.288 30.742 C 104.063 30.794 101.858 30.181 99.674 28.902 C 97.077 26.225 94.479 23.549 91.881 20.873 C 93.936 21.997 96.101 22.691 98.445 22.69 C 108.42 22.69 118.394 22.69 128.369 22.69 C 129.119 22.69 132.614 22.998 135.182 25.564 C 143.628 34.244 147.926 38.659 156.372 47.338 C 160.726 51.812 161.172 55.332 158.047 58.126 C 151.144 64.298 134.841 61.646 126.441 56.447 C 153.305 67.227 152.593 46.807 140.418 46.801 C 134.235 46.798 128.052 46.795 121.869 46.793 C 119.806 46.83 117.619 46.279 115.266 44.944 L 115.266 44.943 Z " fill-rule="evenodd" fill="rgb(86,87,87)"/></g></g></svg>