<?xml version="1.0" encoding="UTF-8" standalone="no"?><!-- Generator: Gravit.io --><svg xmlns="http://www.w3.org/2000/svg" xmlns:xlink="http://www.w3.org/1999/xlink" style="isolation:isolate" viewBox="0 0 551 110" width="551pt" height="110pt"><defs><clipPath id="_clipPath_kQ2C6ay5ncTlh50k2dSFhkiMBTnJZTJt"><rect width="551" height="110"/></clipPath></defs><g clip-path="url(#_clipPath_kQ2C6ay5ncTlh50k2dSFhkiMBTnJZTJt)"><g><g><path d=" M 117.961 40.394 L 117.961 69.102 Q 117.961 79.214 128.364 79.214 L 539.283 79.214 Q 549.686 79.214 549.686 69.102 L 549.686 40.394 Q 549.686 30.285 539.283 30.285 L 128.364 30.285 Q 117.961 30.285 117.961 40.394 Z " fill-rule="evenodd" fill="rgb(231,120,23)"/><path d=" M 128.169 30.285 L 237.271 30.285 C 242.886 30.285 247.479 34.838 247.479 40.394 L 247.479 69.102 C 247.479 74.66 242.882 79.214 237.271 79.214 L 128.169 79.214 C 122.559 79.214 117.961 74.663 117.961 69.102 L 117.961 40.394 C 117.961 34.833 122.554 30.283 128.169 30.283 L 128.169 30.285 Z " fill-rule="evenodd" fill="rgb(77,73,72)"/><path d=" M 143.029 47.901 L 143.029 65.398 L 138.069 65.398 L 138.069 47.901 L 128.289 47.901 L 128.289 44.098 L 152.836 44.098 L 152.836 47.901 L 143.029 47.901 Z  M 162.571 47.901 L 175.94 47.901 L 175.94 52.448 L 165.293 52.448 L 165.293 56.615 L 175.94 56.615 L 175.94 61.402 L 162.571 61.402 L 162.571 59.002 L 157.617 57.846 L 157.617 60.364 C 157.617 62.289 157.976 63.609 158.698 64.332 C 159.461 65.04 160.865 65.398 162.906 65.398 L 176.471 65.398 C 177.033 65.398 177.661 65.282 178.347 65.047 C 179.035 64.814 179.634 64.393 180.136 63.796 C 180.637 63.19 180.892 62.393 180.892 61.402 L 180.892 51.539 L 180.892 49.14 C 180.892 47.22 180.535 45.899 179.813 45.177 C 179.057 44.462 177.653 44.104 175.603 44.104 L 162.908 44.104 C 160.857 44.104 159.454 44.462 158.698 45.184 C 157.976 45.899 157.617 47.22 157.617 49.14 L 157.617 51.168 L 162.571 49.93 L 162.571 47.901 Z  M 187.505 65.398 L 187.505 44.098 L 192.505 44.098 L 192.505 52.977 L 204.313 44.098 L 211.487 44.098 L 197.374 54.133 L 213.22 65.398 L 205.263 65.398 L 192.505 56.03 L 192.505 65.398 L 187.505 65.398 Z  M 237.927 47.901 L 224.557 47.901 L 224.557 61.396 L 237.927 61.396 L 237.927 56.814 L 242.886 57.839 L 242.886 60.357 C 242.886 62.289 242.529 63.609 241.807 64.332 C 241.043 65.04 239.64 65.398 237.597 65.398 L 224.887 65.398 C 222.844 65.398 221.441 65.04 220.677 64.332 C 219.955 63.609 219.599 62.289 219.599 60.357 L 219.599 49.133 C 219.599 47.213 219.955 45.892 220.677 45.177 C 221.435 44.455 222.837 44.097 224.887 44.097 L 237.597 44.097 C 239.647 44.097 241.05 44.455 241.807 45.177 C 242.529 45.892 242.886 47.213 242.886 49.14 L 242.886 51.161 L 237.927 51.952 L 237.927 47.901 Z " fill-rule="evenodd" fill="rgb(255,255,255)"/><path d=" M 254.051 56.525 L 254.051 52.269 L 263.658 52.269 L 263.658 56.525 L 254.051 56.525 Z  M 272.237 56.891 L 281.551 56.891 L 276.936 48.231 L 272.237 56.891 Z  M 262.698 65.398 L 274.7 44.097 L 279.487 44.097 L 291.702 65.398 L 286.132 65.398 L 283.573 60.735 L 270.092 60.735 L 267.615 65.398 L 262.698 65.398 Z  M 313.878 47.572 L 302.578 47.572 L 302.578 52.64 L 313.878 52.64 C 314.716 52.64 315.308 52.529 315.652 52.317 C 315.989 52.063 316.154 51.663 316.154 51.12 L 316.154 49.091 C 316.154 48.548 315.989 48.149 315.652 47.894 C 315.308 47.681 314.716 47.572 313.878 47.572 Z  M 313.878 56.147 L 302.578 56.147 L 302.578 61.554 L 313.878 61.554 C 314.835 61.554 315.467 61.416 315.783 61.142 C 316.113 60.851 316.279 60.357 316.279 59.661 L 316.279 58.052 C 316.279 57.344 316.113 56.849 315.783 56.561 C 315.46 56.285 314.828 56.147 313.878 56.147 L 313.878 56.147 Z  M 297.709 65.398 L 297.709 44.097 L 315.948 44.097 C 317.613 44.097 318.844 44.428 319.627 45.095 C 320.364 45.754 320.735 46.801 320.735 48.231 L 320.735 50.824 C 320.735 51.821 320.419 52.633 319.786 53.265 C 319.132 53.919 318.226 54.297 317.062 54.414 C 318.294 54.579 319.243 55.027 319.91 55.742 C 320.577 56.436 320.907 57.357 320.907 58.505 L 320.907 61.222 C 320.907 62.606 320.385 63.651 319.331 64.373 C 318.32 65.054 316.752 65.398 314.627 65.398 L 297.709 65.398 Z  M 340.821 47.901 L 340.821 65.398 L 335.862 65.398 L 335.862 47.901 L 326.082 47.901 L 326.082 44.097 L 350.627 44.097 L 350.627 47.901 L 340.821 47.901 Z  M 355.067 49.133 C 355.067 47.206 355.423 45.885 356.133 45.177 C 356.896 44.455 358.3 44.097 360.348 44.097 L 376.036 44.097 C 378.099 44.097 379.49 44.455 380.205 45.177 C 380.954 45.88 381.325 47.199 381.325 49.133 L 381.325 60.357 C 381.325 62.303 380.954 63.624 380.205 64.332 C 379.483 65.04 378.092 65.398 376.036 65.398 L 360.348 65.398 C 358.307 65.398 356.904 65.04 356.133 64.332 C 355.423 63.617 355.067 62.296 355.067 60.357 L 355.067 49.133 Z  M 360.025 61.394 L 376.366 61.394 L 376.366 47.901 L 360.025 47.901 L 360.025 61.394 Z  M 388.474 65.398 L 388.474 44.097 L 392.476 44.097 L 402.497 56.973 L 412.318 44.097 L 416.288 44.097 L 416.288 65.398 L 411.707 65.398 L 411.707 52.228 C 411.707 51.849 411.722 51.532 411.748 51.285 C 411.783 50.955 411.824 50.514 411.865 49.964 C 411.734 50.211 411.61 50.453 411.494 50.686 C 411.383 50.926 411.274 51.134 411.17 51.326 C 410.915 51.78 410.738 52.068 410.627 52.192 L 402.628 62.839 L 401.632 62.839 L 393.632 52.15 C 393.418 51.883 393.171 51.498 392.89 50.989 C 392.614 50.548 392.436 50.204 392.354 49.964 C 392.395 50.412 392.436 50.824 392.476 51.202 L 392.476 52.228 L 392.476 65.398 L 388.474 65.398 Z  M 430.774 56.891 L 440.086 56.891 L 435.473 48.231 L 430.774 56.891 Z  M 421.234 65.398 L 433.236 44.097 L 438.023 44.097 L 450.238 65.398 L 444.668 65.398 L 442.109 60.735 L 428.629 60.735 L 426.152 65.398 L 421.234 65.398 Z  M 469.086 47.901 L 469.086 65.398 L 464.127 65.398 L 464.127 47.901 L 454.348 47.901 L 454.348 44.097 L 478.893 44.097 L 478.893 47.901 L 469.086 47.901 Z  M 508.015 65.398 L 508.015 44.097 L 504.632 44.097 L 489.653 56.649 C 489.026 57.138 488.572 57.516 488.291 57.798 C 487.967 58.12 487.617 58.513 487.225 58.961 C 487.251 58.527 487.28 58.066 487.314 57.557 C 487.341 57.056 487.37 56.685 487.389 56.443 C 487.411 56.113 487.424 55.728 487.424 55.281 L 487.424 44.097 L 482.974 44.097 L 482.974 65.398 L 486.357 65.398 L 501.99 52.228 C 502.445 51.842 502.768 51.539 502.981 51.326 C 503.318 50.996 503.58 50.72 503.766 50.495 C 503.752 50.742 503.725 51.064 503.684 51.464 C 503.642 51.869 503.614 52.165 503.607 52.358 C 503.58 52.771 503.565 53.28 503.565 53.885 L 503.565 65.398 L 508.015 65.398 Z  M 514.635 65.398 L 514.635 44.097 L 519.635 44.097 L 519.635 52.977 L 531.444 44.097 L 538.618 44.097 L 524.505 54.133 L 540.351 65.398 L 532.394 65.398 L 519.635 56.03 L 519.635 65.398 L 514.635 65.398 Z " fill-rule="evenodd" fill="rgb(77,73,72)"/></g></g><g><path d=" M -6375.697 -3206.232 C -6379.252 -3209.894 -6382.808 -3213.553 -6386.366 -3217.213 C -6393.396 -3217.213 -6400.428 -3217.213 -6407.459 -3217.213 C -6412.997 -3217.213 -6414.981 -3217.019 -6418.267 -3220.37 C -6422.189 -3224.428 -6422.352 -3225.679 -6418.959 -3229.048 C -6411.346 -3236.914 -6403.733 -3244.783 -6396.12 -3252.649 C -6395.418 -3253.376 -6394.708 -3254.1 -6394.011 -3254.832 C -6390.392 -3258.622 -6384.815 -3255.774 -6377.77 -3253.74 C -6383.174 -3259.299 -6388.579 -3264.86 -6393.982 -3270.42 C -6406.129 -3257.932 -6418.278 -3245.444 -6430.425 -3232.957 C -6434.728 -3228.505 -6434.726 -3221.636 -6430.452 -3217.216 C -6428.662 -3215.354 -6426.872 -3213.492 -6425.081 -3211.63 C -6419.927 -3206.286 -6419.655 -3206.221 -6412.224 -3206.223 C -6400.049 -3206.223 -6387.873 -3206.223 -6375.697 -3206.241 L -6375.697 -3206.232 L -6375.697 -3206.232 Z " fill-rule="evenodd" fill="rgb(255,255,255)"/><path d=" M -6388.409 -3219.313 C -6391.369 -3222.356 -6394.33 -3225.399 -6397.29 -3228.442 C -6394.835 -3227.143 -6392.335 -3226.272 -6389.74 -3226.345 C -6381.183 -3226.345 -6372.625 -3226.345 -6364.068 -3226.345 C -6368.229 -3230.654 -6370.975 -3235.462 -6377.444 -3235.462 C -6384.502 -3235.462 -6391.559 -3235.462 -6398.618 -3235.462 C -6401.149 -3235.403 -6403.656 -3236.1 -6406.14 -3237.555 C -6409.093 -3240.598 -6412.047 -3243.641 -6415 -3246.684 C -6412.665 -3245.407 -6410.203 -3244.618 -6407.536 -3244.618 C -6396.194 -3244.618 -6384.851 -3244.618 -6373.51 -3244.618 C -6372.657 -3244.618 -6368.682 -3244.269 -6365.761 -3241.349 C -6356.157 -3231.48 -6351.272 -3226.46 -6341.668 -3216.591 C -6336.716 -3211.503 -6336.207 -3207.501 -6339.761 -3204.324 C -6347.61 -3197.304 -6366.15 -3200.32 -6375.702 -3206.232 C -6345.153 -3193.974 -6345.963 -3217.195 -6359.808 -3217.202 C -6366.84 -3217.202 -6373.871 -3217.202 -6380.901 -3217.22 C -6383.247 -3217.177 -6385.733 -3217.804 -6388.409 -3219.322 L -6388.409 -3219.313 L -6388.409 -3219.313 Z " fill-rule="evenodd" fill="rgb(255,255,255)"/></g><circle vector-effect="non-scaling-stroke" cx="56.49999999999999" cy="55.00000000000001" r="53.50000000000003" fill="rgb(255,255,255)"/><g><g><path d=" M 65.359 78.548 C 62.079 75.17 58.799 71.794 55.519 68.418 C 49.031 68.418 42.545 68.418 36.058 68.418 C 30.95 68.418 29.119 68.597 26.088 65.504 C 22.471 61.763 22.319 60.609 25.449 57.501 C 32.473 50.242 39.496 42.985 46.519 35.727 C 47.167 35.056 47.821 34.39 48.464 33.715 C 51.803 30.217 56.946 32.843 63.447 34.721 C 58.462 29.591 53.476 24.463 48.491 19.333 C 37.284 30.854 26.078 42.374 14.872 53.894 C 10.902 58.001 10.904 64.338 14.847 68.415 C 16.499 70.132 18.15 71.85 19.801 73.567 C 24.557 78.497 24.809 78.557 31.662 78.556 C 42.895 78.553 54.128 78.55 65.36 78.548 L 65.359 78.548 Z " fill-rule="evenodd" fill="rgb(231,120,23)"/><path d=" M 53.632 66.479 C 50.901 63.673 48.171 60.867 45.439 58.059 C 47.704 59.258 50.01 60.06 52.405 59.992 C 60.299 59.992 68.192 59.992 76.087 59.992 C 72.247 56.017 69.716 51.582 63.749 51.582 C 57.236 51.582 50.726 51.582 44.213 51.582 C 41.88 51.637 39.567 50.993 37.276 49.652 C 34.551 46.844 31.826 44.036 29.1 41.229 C 31.257 42.409 33.527 43.137 35.986 43.136 C 46.451 43.136 56.913 43.136 67.377 43.136 C 68.164 43.136 71.83 43.459 74.525 46.15 C 83.384 55.256 87.893 59.887 96.753 68.992 C 101.32 73.685 101.788 77.378 98.51 80.308 C 91.269 86.783 74.167 84.001 65.355 78.548 C 93.536 89.856 92.789 68.434 80.017 68.429 C 73.531 68.426 67.044 68.423 60.558 68.42 C 58.395 68.459 56.1 67.881 53.632 66.48 L 53.632 66.479 Z " fill-rule="evenodd" fill="rgb(77,73,72)"/></g></g><g><path d=" M -3516.72 -1751.587 C -3518.65 -1753.574 -3520.58 -1755.561 -3522.511 -1757.547 C -3526.327 -1757.547 -3530.144 -1757.547 -3533.96 -1757.547 C -3536.966 -1757.547 -3538.042 -1757.442 -3539.826 -1759.261 C -3541.955 -1761.463 -3542.043 -1762.142 -3540.202 -1763.971 C -3536.07 -1768.24 -3531.938 -1772.511 -3527.805 -1776.781 C -3527.424 -1777.176 -3527.039 -1777.569 -3526.661 -1777.965 C -3524.697 -1780.023 -3521.669 -1778.477 -3517.846 -1777.373 C -3520.778 -1780.39 -3523.712 -1783.409 -3526.645 -1786.426 C -3533.238 -1779.648 -3539.832 -1772.87 -3546.425 -1766.092 C -3548.761 -1763.676 -3548.76 -1759.948 -3546.44 -1757.549 C -3545.468 -1756.538 -3544.496 -1755.528 -3543.525 -1754.517 C -3540.727 -1751.616 -3540.579 -1751.581 -3536.546 -1751.582 C -3529.938 -1751.582 -3523.329 -1751.582 -3516.72 -1751.592 L -3516.72 -1751.587 L -3516.72 -1751.587 Z " fill-rule="evenodd" fill="rgb(255,255,255)"/><path d=" M -3523.62 -1758.687 C -3525.227 -1760.339 -3526.834 -1761.99 -3528.441 -1763.642 C -3527.108 -1762.937 -3525.751 -1762.464 -3524.343 -1762.504 C -3519.698 -1762.504 -3515.053 -1762.504 -3510.408 -1762.504 C -3512.667 -1764.842 -3514.157 -1767.452 -3517.669 -1767.452 C -3521.499 -1767.452 -3525.33 -1767.452 -3529.161 -1767.452 C -3530.535 -1767.42 -3531.896 -1767.799 -3533.244 -1768.588 C -3534.847 -1770.24 -3536.45 -1771.892 -3538.053 -1773.543 C -3536.786 -1772.85 -3535.449 -1772.422 -3534.002 -1772.422 C -3527.845 -1772.422 -3521.689 -1772.422 -3515.534 -1772.422 C -3515.071 -1772.422 -3512.913 -1772.232 -3511.327 -1770.648 C -3506.115 -1765.291 -3503.463 -1762.566 -3498.25 -1757.209 C -3495.562 -1754.448 -3495.286 -1752.276 -3497.215 -1750.551 C -3501.476 -1746.741 -3511.539 -1748.378 -3516.723 -1751.587 C -3500.142 -1744.934 -3500.582 -1757.537 -3508.096 -1757.541 C -3511.913 -1757.541 -3515.729 -1757.541 -3519.545 -1757.551 C -3520.818 -1757.527 -3522.168 -1757.868 -3523.62 -1758.692 L -3523.62 -1758.687 L -3523.62 -1758.687 Z " fill-rule="evenodd" fill="rgb(255,255,255)"/></g></g></svg>