<?xml version="1.0" standalone="no"?><!-- Generator: Gravit.io --><svg xmlns="http://www.w3.org/2000/svg" xmlns:xlink="http://www.w3.org/1999/xlink" style="isolation:isolate" viewBox="0 0 250 110" width="250" height="110"><defs><clipPath id="_clipPath_CKiUeFXn09lkJ00UD6i5DfS08bV4vzdn"><rect width="250" height="110"/></clipPath></defs><g clip-path="url(#_clipPath_CKiUeFXn09lkJ00UD6i5DfS08bV4vzdn)"><g><g><path d=" M 5 85.35 L 5 101.369 Q 5 107.011 10.805 107.011 L 240.094 107.011 Q 245.899 107.011 245.899 101.369 L 245.899 85.35 Q 245.899 79.709 240.094 79.709 L 10.805 79.709 Q 5 79.709 5 85.35 Z " fill-rule="evenodd" fill="rgb(231,120,23)"/><path d=" M 10.696 79.709 L 71.574 79.709 C 74.707 79.709 77.27 82.25 77.27 85.35 L 77.27 101.369 C 77.27 104.47 74.705 107.011 71.574 107.011 L 10.696 107.011 C 7.566 107.011 5 104.472 5 101.369 L 5 85.35 C 5 82.247 7.563 79.708 10.696 79.708 L 10.696 79.709 Z " fill-rule="evenodd" fill="rgb(77,73,72)"/><path d=" M 18.988 89.539 L 18.988 99.302 L 16.22 99.302 L 16.22 89.539 L 10.763 89.539 L 10.763 87.417 L 24.46 87.417 L 24.46 89.539 L 18.988 89.539 Z  M 29.892 89.539 L 37.352 89.539 L 37.352 92.076 L 31.411 92.076 L 31.411 94.401 L 37.352 94.401 L 37.352 97.072 L 29.892 97.072 L 29.892 95.733 L 27.128 95.088 L 27.128 96.493 C 27.128 97.567 27.328 98.304 27.731 98.707 C 28.157 99.102 28.94 99.302 30.079 99.302 L 37.648 99.302 C 37.962 99.302 38.312 99.237 38.695 99.106 C 39.079 98.976 39.413 98.741 39.693 98.408 C 39.973 98.07 40.115 97.625 40.115 97.072 L 40.115 91.569 L 40.115 90.23 C 40.115 89.159 39.916 88.422 39.513 88.019 C 39.091 87.62 38.308 87.42 37.164 87.42 L 30.08 87.42 C 28.936 87.42 28.153 87.62 27.731 88.023 C 27.328 88.422 27.128 89.159 27.128 90.23 L 27.128 91.362 L 29.892 90.671 L 29.892 89.539 Z  M 43.805 99.302 L 43.805 87.417 L 46.595 87.417 L 46.595 92.371 L 53.184 87.417 L 57.187 87.417 L 49.312 93.016 L 58.154 99.302 L 53.714 99.302 L 46.595 94.075 L 46.595 99.302 L 43.805 99.302 Z  M 71.94 89.539 L 64.48 89.539 L 64.48 97.069 L 71.94 97.069 L 71.94 94.512 L 74.707 95.084 L 74.707 96.489 C 74.707 97.567 74.508 98.304 74.105 98.707 C 73.679 99.102 72.896 99.302 71.756 99.302 L 64.664 99.302 C 63.524 99.302 62.741 99.102 62.315 98.707 C 61.912 98.304 61.713 97.567 61.713 96.489 L 61.713 90.226 C 61.713 89.155 61.912 88.418 62.315 88.019 C 62.738 87.616 63.52 87.416 64.664 87.416 L 71.756 87.416 C 72.9 87.416 73.683 87.616 74.105 88.019 C 74.508 88.418 74.707 89.155 74.707 90.23 L 74.707 91.358 L 71.94 91.799 L 71.94 89.539 Z " fill-rule="evenodd" fill="rgb(255,255,255)"/><path d=" M 80.937 94.351 L 80.937 91.976 L 86.298 91.976 L 86.298 94.351 L 80.937 94.351 Z  M 91.085 94.555 L 96.282 94.555 L 93.707 89.723 L 91.085 94.555 Z  M 85.762 99.302 L 92.459 87.416 L 95.13 87.416 L 101.946 99.302 L 98.838 99.302 L 97.41 96.7 L 89.888 96.7 L 88.506 99.302 L 85.762 99.302 Z  M 114.32 89.355 L 108.015 89.355 L 108.015 92.183 L 114.32 92.183 C 114.788 92.183 115.118 92.121 115.31 92.003 C 115.498 91.861 115.59 91.638 115.59 91.335 L 115.59 90.203 C 115.59 89.9 115.498 89.677 115.31 89.535 C 115.118 89.416 114.788 89.355 114.32 89.355 Z  M 114.32 94.14 L 108.015 94.14 L 108.015 97.157 L 114.32 97.157 C 114.854 97.157 115.207 97.08 115.383 96.927 C 115.567 96.765 115.66 96.489 115.66 96.101 L 115.66 95.203 C 115.66 94.808 115.567 94.532 115.383 94.371 C 115.203 94.217 114.85 94.14 114.32 94.14 L 114.32 94.14 Z  M 105.298 99.302 L 105.298 87.416 L 115.475 87.416 C 116.404 87.416 117.091 87.601 117.528 87.973 C 117.939 88.341 118.146 88.925 118.146 89.723 L 118.146 91.17 C 118.146 91.726 117.97 92.179 117.617 92.532 C 117.252 92.897 116.746 93.108 116.097 93.173 C 116.784 93.265 117.314 93.515 117.686 93.914 C 118.058 94.301 118.242 94.815 118.242 95.456 L 118.242 96.972 C 118.242 97.744 117.951 98.327 117.363 98.73 C 116.799 99.11 115.924 99.302 114.738 99.302 L 105.298 99.302 Z  M 129.354 89.539 L 129.354 99.302 L 126.587 99.302 L 126.587 89.539 L 121.13 89.539 L 121.13 87.416 L 134.826 87.416 L 134.826 89.539 L 129.354 89.539 Z  M 137.303 90.226 C 137.303 89.151 137.502 88.414 137.898 88.019 C 138.324 87.616 139.107 87.416 140.25 87.416 L 149.004 87.416 C 150.155 87.416 150.931 87.616 151.33 88.019 C 151.748 88.411 151.955 89.147 151.955 90.226 L 151.955 96.489 C 151.955 97.575 151.748 98.312 151.33 98.707 C 150.927 99.102 150.151 99.302 149.004 99.302 L 140.25 99.302 C 139.111 99.302 138.328 99.102 137.898 98.707 C 137.502 98.308 137.303 97.571 137.303 96.489 L 137.303 90.226 Z  M 140.07 97.068 L 149.188 97.068 L 149.188 89.539 L 140.07 89.539 L 140.07 97.068 Z  M 155.944 99.302 L 155.944 87.416 L 158.177 87.416 L 163.769 94.601 L 169.249 87.416 L 171.464 87.416 L 171.464 99.302 L 168.908 99.302 L 168.908 91.953 C 168.908 91.742 168.916 91.565 168.931 91.427 C 168.95 91.243 168.973 90.997 168.996 90.69 C 168.923 90.828 168.854 90.963 168.789 91.093 C 168.727 91.227 168.666 91.343 168.608 91.45 C 168.466 91.703 168.367 91.864 168.305 91.933 L 163.842 97.874 L 163.286 97.874 L 158.822 91.91 C 158.703 91.761 158.565 91.546 158.408 91.262 C 158.254 91.016 158.155 90.824 158.109 90.69 C 158.132 90.94 158.155 91.17 158.177 91.381 L 158.177 91.953 L 158.177 99.302 L 155.944 99.302 Z  M 179.547 94.555 L 184.743 94.555 L 182.169 89.723 L 179.547 94.555 Z  M 174.224 99.302 L 180.921 87.416 L 183.592 87.416 L 190.408 99.302 L 187.3 99.302 L 185.872 96.7 L 178.35 96.7 L 176.968 99.302 L 174.224 99.302 Z  M 200.925 89.539 L 200.925 99.302 L 198.158 99.302 L 198.158 89.539 L 192.701 89.539 L 192.701 87.416 L 206.397 87.416 L 206.397 89.539 L 200.925 89.539 Z  M 222.647 99.302 L 222.647 87.416 L 220.759 87.416 L 212.401 94.42 C 212.051 94.693 211.798 94.904 211.641 95.061 C 211.46 95.241 211.265 95.46 211.046 95.71 C 211.061 95.468 211.077 95.211 211.096 94.927 C 211.111 94.647 211.127 94.44 211.138 94.305 C 211.15 94.121 211.157 93.906 211.157 93.657 L 211.157 87.416 L 208.674 87.416 L 208.674 99.302 L 210.562 99.302 L 219.285 91.953 C 219.539 91.738 219.719 91.569 219.838 91.45 C 220.026 91.266 220.172 91.112 220.276 90.986 C 220.268 91.124 220.253 91.304 220.23 91.527 C 220.207 91.753 220.191 91.918 220.187 92.026 C 220.172 92.256 220.164 92.54 220.164 92.878 L 220.164 99.302 L 222.647 99.302 Z  M 226.341 99.302 L 226.341 87.416 L 229.131 87.416 L 229.131 92.371 L 235.72 87.416 L 239.723 87.416 L 231.848 93.016 L 240.69 99.302 L 236.25 99.302 L 229.131 94.075 L 229.131 99.302 L 226.341 99.302 Z " fill-rule="evenodd" fill="rgb(77,73,72)"/><path d=" M 131.445 60.447 C 128.318 57.228 125.191 54.009 122.064 50.791 C 115.88 50.791 109.697 50.791 103.513 50.791 C 98.644 50.791 96.898 50.961 94.009 48.013 C 90.561 44.447 90.417 43.347 93.4 40.384 C 100.095 33.465 106.79 26.546 113.485 19.628 C 114.103 18.988 114.727 18.353 115.34 17.709 C 118.522 14.375 123.426 16.879 129.623 18.668 C 124.87 13.779 120.117 8.89 115.365 4 C 104.682 14.982 94 25.964 83.317 36.946 C 79.533 40.861 79.535 46.902 83.293 50.788 C 84.868 52.425 86.442 54.062 88.016 55.7 C 92.549 60.399 92.789 60.456 99.323 60.455 C 110.031 60.452 120.738 60.449 131.446 60.447 L 131.445 60.447 Z " fill-rule="evenodd" fill="rgb(231,120,23)"/><path d=" M 120.266 48.943 C 117.663 46.268 115.06 43.592 112.456 40.916 C 114.615 42.059 116.813 42.824 119.096 42.759 C 126.621 42.759 134.146 42.759 141.672 42.759 C 138.012 38.97 135.599 34.742 129.91 34.742 C 123.702 34.742 117.496 34.742 111.288 34.742 C 109.063 34.794 106.858 34.181 104.674 32.902 C 102.077 30.225 99.479 27.549 96.881 24.873 C 98.936 25.997 101.101 26.691 103.445 26.69 C 113.42 26.69 123.394 26.69 133.369 26.69 C 134.119 26.69 137.614 26.998 140.182 29.564 C 148.628 38.244 152.926 42.659 161.372 51.338 C 165.726 55.812 166.172 59.332 163.047 62.126 C 156.144 68.298 139.841 65.646 131.441 60.447 C 158.305 71.227 157.593 50.807 145.418 50.801 C 139.235 50.798 133.052 50.795 126.869 50.793 C 124.806 50.83 122.619 50.279 120.266 48.944 L 120.266 48.943 Z " fill-rule="evenodd" fill="rgb(77,73,72)"/></g></g><g><path d=" M -3618.404 -1802.239 C -3620.388 -1804.282 -3622.372 -1806.324 -3624.357 -1808.366 C -3628.28 -1808.366 -3632.204 -1808.366 -3636.127 -1808.366 C -3639.217 -1808.366 -3640.324 -1808.258 -3642.158 -1810.128 C -3644.346 -1812.392 -3644.437 -1813.09 -3642.544 -1814.97 C -3638.296 -1819.359 -3634.048 -1823.75 -3629.8 -1828.139 C -3629.408 -1828.545 -3629.012 -1828.949 -3628.623 -1829.357 C -3626.604 -1831.472 -3623.492 -1829.883 -3619.561 -1828.748 C -3622.576 -1831.85 -3625.592 -1834.953 -3628.607 -1838.055 C -3635.385 -1831.087 -3642.164 -1824.119 -3648.942 -1817.151 C -3651.343 -1814.667 -3651.342 -1810.834 -3648.957 -1808.368 C -3647.958 -1807.329 -3646.959 -1806.29 -3645.96 -1805.251 C -3643.084 -1802.269 -3642.932 -1802.233 -3638.786 -1802.234 C -3631.992 -1802.234 -3625.198 -1802.234 -3618.404 -1802.244 L -3618.404 -1802.239 Z " fill-rule="evenodd" fill="rgb(255,255,255)"/><path d=" M -3625.497 -1809.538 C -3627.149 -1811.236 -3628.801 -1812.934 -3630.453 -1814.632 C -3629.083 -1813.907 -3627.688 -1813.421 -3626.24 -1813.462 C -3621.465 -1813.462 -3616.69 -1813.462 -3611.915 -1813.462 C -3614.237 -1815.866 -3615.769 -1818.549 -3619.379 -1818.549 C -3623.317 -1818.549 -3627.255 -1818.549 -3631.194 -1818.549 C -3632.606 -1818.516 -3634.005 -1818.905 -3635.391 -1819.717 C -3637.039 -1821.415 -3638.687 -1823.113 -3640.335 -1824.811 C -3639.032 -1824.098 -3637.658 -1823.658 -3636.17 -1823.658 C -3629.841 -1823.658 -3623.512 -1823.658 -3617.184 -1823.658 C -3616.708 -1823.658 -3614.49 -1823.463 -3612.86 -1821.834 C -3607.501 -1816.327 -3604.775 -1813.526 -3599.416 -1808.019 C -3596.653 -1805.18 -3596.369 -1802.947 -3598.352 -1801.174 C -3602.732 -1797.257 -3613.077 -1798.94 -3618.407 -1802.239 C -3601.361 -1795.399 -3601.813 -1808.356 -3609.538 -1808.36 C -3613.462 -1808.36 -3617.385 -1808.36 -3621.308 -1808.37 C -3622.617 -1808.346 -3624.004 -1808.696 -3625.497 -1809.543 L -3625.497 -1809.538 Z " fill-rule="evenodd" fill="rgb(255,255,255)"/></g></g></svg>